<svg id="eXhSEaksIdV1" xmlns="http://www.w3.org/2000/svg" xmlns:xlink="http://www.w3.org/1999/xlink" viewBox="0 0 1100 760" shape-rendering="geometricPrecision" text-rendering="geometricPrecision" width="1100" height="760" style="background-color:#2b2d31"><defs><filter id="eXhSEaksIdV3-filter" x="-150%" width="400%" y="-150%" height="400%"><feGaussianBlur id="eXhSEaksIdV3-filter-drop-shadow-0-blur" in="SourceAlpha" stdDeviation="17,17"/><feOffset id="eXhSEaksIdV3-filter-drop-shadow-0-offset" dx="4" dy="4" result="tmp"/><feFlood id="eXhSEaksIdV3-filter-drop-shadow-0-flood" flood-color="#e0e0e0"/><feComposite id="eXhSEaksIdV3-filter-drop-shadow-0-composite" operator="in" in2="tmp"/><feMerge id="eXhSEaksIdV3-filter-drop-shadow-0-merge" result="result"><feMergeNode id="eXhSEaksIdV3-filter-drop-shadow-0-merge-node-1"/><feMergeNode id="eXhSEaksIdV3-filter-drop-shadow-0-merge-node-2" in="SourceGraphic"/></feMerge></filter><filter id="eXhSEaksIdV4-filter" x="-150%" width="400%" y="-150%" height="400%"><feGaussianBlur id="eXhSEaksIdV4-filter-drop-shadow-0-blur" in="SourceAlpha" stdDeviation="17,17"/><feOffset id="eXhSEaksIdV4-filter-drop-shadow-0-offset" dx="4" dy="4" result="tmp"/><feFlood id="eXhSEaksIdV4-filter-drop-shadow-0-flood" flood-color="#e0e0e0"/><feComposite id="eXhSEaksIdV4-filter-drop-shadow-0-composite" operator="in" in2="tmp"/><feMerge id="eXhSEaksIdV4-filter-drop-shadow-0-merge" result="result"><feMergeNode id="eXhSEaksIdV4-filter-drop-shadow-0-merge-node-1"/><feMergeNode id="eXhSEaksIdV4-filter-drop-shadow-0-merge-node-2" in="SourceGraphic"/></feMerge></filter><filter id="eXhSEaksIdV6-filter" x="-150%" width="400%" y="-150%" height="400%"><feGaussianBlur id="eXhSEaksIdV6-filter-drop-shadow-0-blur" in="SourceAlpha" stdDeviation="17,17"/><feOffset id="eXhSEaksIdV6-filter-drop-shadow-0-offset" dx="4" dy="4" result="tmp"/><feFlood id="eXhSEaksIdV6-filter-drop-shadow-0-flood" flood-color="#e0e0e0"/><feComposite id="eXhSEaksIdV6-filter-drop-shadow-0-composite" operator="in" in2="tmp"/><feMerge id="eXhSEaksIdV6-filter-drop-shadow-0-merge" result="result"><feMergeNode id="eXhSEaksIdV6-filter-drop-shadow-0-merge-node-1"/><feMergeNode id="eXhSEaksIdV6-filter-drop-shadow-0-merge-node-2" in="SourceGraphic"/></feMerge></filter><filter id="eXhSEaksIdV7-filter" x="-150%" width="400%" y="-150%" height="400%"><feGaussianBlur id="eXhSEaksIdV7-filter-drop-shadow-0-blur" in="SourceAlpha" stdDeviation="17,17"/><feOffset id="eXhSEaksIdV7-filter-drop-shadow-0-offset" dx="4" dy="4" result="tmp"/><feFlood id="eXhSEaksIdV7-filter-drop-shadow-0-flood" flood-color="#e0e0e0"/><feComposite id="eXhSEaksIdV7-filter-drop-shadow-0-composite" operator="in" in2="tmp"/><feMerge id="eXhSEaksIdV7-filter-drop-shadow-0-merge" result="result"><feMergeNode id="eXhSEaksIdV7-filter-drop-shadow-0-merge-node-1"/><feMergeNode id="eXhSEaksIdV7-filter-drop-shadow-0-merge-node-2" in="SourceGraphic"/></feMerge></filter><filter id="eXhSEaksIdV9-filter" x="-150%" width="400%" y="-150%" height="400%"><feGaussianBlur id="eXhSEaksIdV9-filter-drop-shadow-0-blur" in="SourceAlpha" stdDeviation="17,17"/><feOffset id="eXhSEaksIdV9-filter-drop-shadow-0-offset" dx="4" dy="4" result="tmp"/><feFlood id="eXhSEaksIdV9-filter-drop-shadow-0-flood" flood-color="#e0e0e0"/><feComposite id="eXhSEaksIdV9-filter-drop-shadow-0-composite" operator="in" in2="tmp"/><feMerge id="eXhSEaksIdV9-filter-drop-shadow-0-merge" result="result"><feMergeNode id="eXhSEaksIdV9-filter-drop-shadow-0-merge-node-1"/><feMergeNode id="eXhSEaksIdV9-filter-drop-shadow-0-merge-node-2" in="SourceGraphic"/></feMerge></filter><filter id="eXhSEaksIdV10-filter" x="-150%" width="400%" y="-150%" height="400%"><feGaussianBlur id="eXhSEaksIdV10-filter-drop-shadow-0-blur" in="SourceAlpha" stdDeviation="17,17"/><feOffset id="eXhSEaksIdV10-filter-drop-shadow-0-offset" dx="4" dy="4" result="tmp"/><feFlood id="eXhSEaksIdV10-filter-drop-shadow-0-flood" flood-color="#e0e0e0"/><feComposite id="eXhSEaksIdV10-filter-drop-shadow-0-composite" operator="in" in2="tmp"/><feMerge id="eXhSEaksIdV10-filter-drop-shadow-0-merge" result="result"><feMergeNode id="eXhSEaksIdV10-filter-drop-shadow-0-merge-node-1"/><feMergeNode id="eXhSEaksIdV10-filter-drop-shadow-0-merge-node-2" in="SourceGraphic"/></feMerge></filter><filter id="eXhSEaksIdV12-filter" x="-150%" width="400%" y="-150%" height="400%"><feGaussianBlur id="eXhSEaksIdV12-filter-drop-shadow-0-blur" in="SourceAlpha" stdDeviation="17,17"/><feOffset id="eXhSEaksIdV12-filter-drop-shadow-0-offset" dx="4" dy="4" result="tmp"/><feFlood id="eXhSEaksIdV12-filter-drop-shadow-0-flood" flood-color="#e0e0e0"/><feComposite id="eXhSEaksIdV12-filter-drop-shadow-0-composite" operator="in" in2="tmp"/><feMerge id="eXhSEaksIdV12-filter-drop-shadow-0-merge" result="result"><feMergeNode id="eXhSEaksIdV12-filter-drop-shadow-0-merge-node-1"/><feMergeNode id="eXhSEaksIdV12-filter-drop-shadow-0-merge-node-2" in="SourceGraphic"/></feMerge></filter><filter id="eXhSEaksIdV13-filter" x="-150%" width="400%" y="-150%" height="400%"><feGaussianBlur id="eXhSEaksIdV13-filter-drop-shadow-0-blur" in="SourceAlpha" stdDeviation="17,17"/><feOffset id="eXhSEaksIdV13-filter-drop-shadow-0-offset" dx="4" dy="4" result="tmp"/><feFlood id="eXhSEaksIdV13-filter-drop-shadow-0-flood" flood-color="#e0e0e0"/><feComposite id="eXhSEaksIdV13-filter-drop-shadow-0-composite" operator="in" in2="tmp"/><feMerge id="eXhSEaksIdV13-filter-drop-shadow-0-merge" result="result"><feMergeNode id="eXhSEaksIdV13-filter-drop-shadow-0-merge-node-1"/><feMergeNode id="eXhSEaksIdV13-filter-drop-shadow-0-merge-node-2" in="SourceGraphic"/></feMerge></filter><filter id="eXhSEaksIdV15-filter" x="-150%" width="400%" y="-150%" height="400%"><feGaussianBlur id="eXhSEaksIdV15-filter-drop-shadow-0-blur" in="SourceAlpha" stdDeviation="17,17"/><feOffset id="eXhSEaksIdV15-filter-drop-shadow-0-offset" dx="4" dy="4" result="tmp"/><feFlood id="eXhSEaksIdV15-filter-drop-shadow-0-flood" flood-color="#e0e0e0"/><feComposite id="eXhSEaksIdV15-filter-drop-shadow-0-composite" operator="in" in2="tmp"/><feMerge id="eXhSEaksIdV15-filter-drop-shadow-0-merge" result="result"><feMergeNode id="eXhSEaksIdV15-filter-drop-shadow-0-merge-node-1"/><feMergeNode id="eXhSEaksIdV15-filter-drop-shadow-0-merge-node-2" in="SourceGraphic"/></feMerge></filter><filter id="eXhSEaksIdV16-filter" x="-150%" width="400%" y="-150%" height="400%"><feGaussianBlur id="eXhSEaksIdV16-filter-drop-shadow-0-blur" in="SourceAlpha" stdDeviation="17,17"/><feOffset id="eXhSEaksIdV16-filter-drop-shadow-0-offset" dx="4" dy="4" result="tmp"/><feFlood id="eXhSEaksIdV16-filter-drop-shadow-0-flood" flood-color="#e0e0e0"/><feComposite id="eXhSEaksIdV16-filter-drop-shadow-0-composite" operator="in" in2="tmp"/><feMerge id="eXhSEaksIdV16-filter-drop-shadow-0-merge" result="result"><feMergeNode id="eXhSEaksIdV16-filter-drop-shadow-0-merge-node-1"/><feMergeNode id="eXhSEaksIdV16-filter-drop-shadow-0-merge-node-2" in="SourceGraphic"/></feMerge></filter><filter id="eXhSEaksIdV17-filter" x="-150%" width="400%" y="-150%" height="400%"><feGaussianBlur id="eXhSEaksIdV17-filter-drop-shadow-0-blur" in="SourceAlpha" stdDeviation="5,5"/><feOffset id="eXhSEaksIdV17-filter-drop-shadow-0-offset" dx="5" dy="5" result="tmp"/><feFlood id="eXhSEaksIdV17-filter-drop-shadow-0-flood" flood-color="#353535"/><feComposite id="eXhSEaksIdV17-filter-drop-shadow-0-composite" operator="in" in2="tmp"/><feMerge id="eXhSEaksIdV17-filter-drop-shadow-0-merge" result="result"><feMergeNode id="eXhSEaksIdV17-filter-drop-shadow-0-merge-node-1"/><feMergeNode id="eXhSEaksIdV17-filter-drop-shadow-0-merge-node-2" in="SourceGraphic"/></feMerge></filter><filter id="eXhSEaksIdV66-filter" x="-150%" width="400%" y="-150%" height="400%"><feGaussianBlur id="eXhSEaksIdV66-filter-drop-shadow-0-blur" in="SourceAlpha" stdDeviation="10,10"/><feOffset id="eXhSEaksIdV66-filter-drop-shadow-0-offset" dx="4" dy="4" result="tmp"/><feFlood id="eXhSEaksIdV66-filter-drop-shadow-0-flood" flood-color="rgba(76,76,76,0.3)"/><feComposite id="eXhSEaksIdV66-filter-drop-shadow-0-composite" operator="in" in2="tmp"/><feMerge id="eXhSEaksIdV66-filter-drop-shadow-0-merge" result="result"><feMergeNode id="eXhSEaksIdV66-filter-drop-shadow-0-merge-node-1"/><feMergeNode id="eXhSEaksIdV66-filter-drop-shadow-0-merge-node-2" in="SourceGraphic"/></feMerge></filter><filter id="eXhSEaksIdV67-filter" x="-150%" width="400%" y="-150%" height="400%"><feGaussianBlur id="eXhSEaksIdV67-filter-drop-shadow-0-blur" in="SourceAlpha" stdDeviation="10,10"/><feOffset id="eXhSEaksIdV67-filter-drop-shadow-0-offset" dx="4" dy="4" result="tmp"/><feFlood id="eXhSEaksIdV67-filter-drop-shadow-0-flood" flood-color="rgba(76,76,76,0.3)"/><feComposite id="eXhSEaksIdV67-filter-drop-shadow-0-composite" operator="in" in2="tmp"/><feMerge id="eXhSEaksIdV67-filter-drop-shadow-0-merge" result="result"><feMergeNode id="eXhSEaksIdV67-filter-drop-shadow-0-merge-node-1"/><feMergeNode id="eXhSEaksIdV67-filter-drop-shadow-0-merge-node-2" in="SourceGraphic"/></feMerge></filter><filter id="eXhSEaksIdV68-filter" x="-150%" width="400%" y="-150%" height="400%"><feGaussianBlur id="eXhSEaksIdV68-filter-drop-shadow-0-blur" in="SourceAlpha" stdDeviation="10,10"/><feOffset id="eXhSEaksIdV68-filter-drop-shadow-0-offset" dx="4" dy="4" result="tmp"/><feFlood id="eXhSEaksIdV68-filter-drop-shadow-0-flood" flood-color="rgba(76,76,76,0.3)"/><feComposite id="eXhSEaksIdV68-filter-drop-shadow-0-composite" operator="in" in2="tmp"/><feMerge id="eXhSEaksIdV68-filter-drop-shadow-0-merge" result="result"><feMergeNode id="eXhSEaksIdV68-filter-drop-shadow-0-merge-node-1"/><feMergeNode id="eXhSEaksIdV68-filter-drop-shadow-0-merge-node-2" in="SourceGraphic"/></feMerge></filter><filter id="eXhSEaksIdV69-filter" x="-150%" width="400%" y="-150%" height="400%"><feGaussianBlur id="eXhSEaksIdV69-filter-drop-shadow-0-blur" in="SourceAlpha" stdDeviation="10,10"/><feOffset id="eXhSEaksIdV69-filter-drop-shadow-0-offset" dx="4" dy="4" result="tmp"/><feFlood id="eXhSEaksIdV69-filter-drop-shadow-0-flood" flood-color="rgba(76,76,76,0.3)"/><feComposite id="eXhSEaksIdV69-filter-drop-shadow-0-composite" operator="in" in2="tmp"/><feMerge id="eXhSEaksIdV69-filter-drop-shadow-0-merge" result="result"><feMergeNode id="eXhSEaksIdV69-filter-drop-shadow-0-merge-node-1"/><feMergeNode id="eXhSEaksIdV69-filter-drop-shadow-0-merge-node-2" in="SourceGraphic"/></feMerge></filter><filter id="eXhSEaksIdV70-filter" x="-150%" width="400%" y="-150%" height="400%"><feGaussianBlur id="eXhSEaksIdV70-filter-drop-shadow-0-blur" in="SourceAlpha" stdDeviation="10,10"/><feOffset id="eXhSEaksIdV70-filter-drop-shadow-0-offset" dx="4" dy="4" result="tmp"/><feFlood id="eXhSEaksIdV70-filter-drop-shadow-0-flood" flood-color="rgba(76,76,76,0.3)"/><feComposite id="eXhSEaksIdV70-filter-drop-shadow-0-composite" operator="in" in2="tmp"/><feMerge id="eXhSEaksIdV70-filter-drop-shadow-0-merge" result="result"><feMergeNode id="eXhSEaksIdV70-filter-drop-shadow-0-merge-node-1"/><feMergeNode id="eXhSEaksIdV70-filter-drop-shadow-0-merge-node-2" in="SourceGraphic"/></feMerge></filter><filter id="eXhSEaksIdV71-filter" x="-150%" width="400%" y="-150%" height="400%"><feGaussianBlur id="eXhSEaksIdV71-filter-drop-shadow-0-blur" in="SourceAlpha" stdDeviation="10,10"/><feOffset id="eXhSEaksIdV71-filter-drop-shadow-0-offset" dx="4" dy="4" result="tmp"/><feFlood id="eXhSEaksIdV71-filter-drop-shadow-0-flood" flood-color="rgba(76,76,76,0.3)"/><feComposite id="eXhSEaksIdV71-filter-drop-shadow-0-composite" operator="in" in2="tmp"/><feMerge id="eXhSEaksIdV71-filter-drop-shadow-0-merge" result="result"><feMergeNode id="eXhSEaksIdV71-filter-drop-shadow-0-merge-node-1"/><feMergeNode id="eXhSEaksIdV71-filter-drop-shadow-0-merge-node-2" in="SourceGraphic"/></feMerge></filter><filter id="eXhSEaksIdV73-filter" x="-150%" width="400%" y="-150%" height="400%"><feGaussianBlur id="eXhSEaksIdV73-filter-drop-shadow-0-blur" in="SourceAlpha" stdDeviation="4,4"/><feOffset id="eXhSEaksIdV73-filter-drop-shadow-0-offset" dx="4" dy="4" result="tmp"/><feFlood id="eXhSEaksIdV73-filter-drop-shadow-0-flood" flood-color="rgba(182,182,182,0)"/><feComposite id="eXhSEaksIdV73-filter-drop-shadow-0-composite" operator="in" in2="tmp"/><feMerge id="eXhSEaksIdV73-filter-drop-shadow-0-merge" result="result"><feMergeNode id="eXhSEaksIdV73-filter-drop-shadow-0-merge-node-1"/><feMergeNode id="eXhSEaksIdV73-filter-drop-shadow-0-merge-node-2" in="SourceGraphic"/></feMerge></filter><filter id="eXhSEaksIdV74-filter" x="-150%" width="400%" y="-150%" height="400%"><feGaussianBlur id="eXhSEaksIdV74-filter-drop-shadow-0-blur" in="SourceAlpha" stdDeviation="4,4"/><feOffset id="eXhSEaksIdV74-filter-drop-shadow-0-offset" dx="4" dy="4" result="tmp"/><feFlood id="eXhSEaksIdV74-filter-drop-shadow-0-flood" flood-color="rgba(182,182,182,0)"/><feComposite id="eXhSEaksIdV74-filter-drop-shadow-0-composite" operator="in" in2="tmp"/><feMerge id="eXhSEaksIdV74-filter-drop-shadow-0-merge" result="result"><feMergeNode id="eXhSEaksIdV74-filter-drop-shadow-0-merge-node-1"/><feMergeNode id="eXhSEaksIdV74-filter-drop-shadow-0-merge-node-2" in="SourceGraphic"/></feMerge></filter></defs><g transform="matrix(-.5 0.866025-.866025-.5 1191.991572 682.926361)"><polygon points="-5.883886,-41.435143 24.116114,17.189957 -35.883886,17.189957 -5.883886,-41.435143" transform="matrix(-.766044 0.642788-.548219-.653342 91.897872 94.296633)" filter="url(#eXhSEaksIdV3-filter)" fill="none" stroke="rgba(118,160,222,0.5)" stroke-width="2" stroke-linecap="round" stroke-linejoin="round"/><polygon points="-5.883886,-41.435143 24.116114,17.189957 -35.883886,17.189957 -5.883886,-41.435143" transform="matrix(-.766044 0.642788-.548219-.653342 85.897872 89.296633)" filter="url(#eXhSEaksIdV4-filter)" fill="none" stroke="rgba(118,160,222,0.5)" stroke-width="2" stroke-linecap="round" stroke-linejoin="round"/></g><g transform="matrix(-.5 0.866025-.866025-.5 1166.728264 333.766889)"><polygon points="-5.883886,-41.435143 24.116114,17.189957 -35.883886,17.189957 -5.883886,-41.435143" transform="matrix(-.766044 0.642788-.548219-.653342 91.897872 94.296633)" filter="url(#eXhSEaksIdV6-filter)" fill="none" stroke="rgba(118,160,222,0.5)" stroke-width="2" stroke-linecap="round" stroke-linejoin="round"/><polygon points="-5.883886,-41.435143 24.116114,17.189957 -35.883886,17.189957 -5.883886,-41.435143" transform="matrix(-.766044 0.642788-.548219-.653342 85.897872 89.296633)" filter="url(#eXhSEaksIdV7-filter)" fill="none" stroke="rgba(118,160,222,0.5)" stroke-width="2" stroke-linecap="round" stroke-linejoin="round"/></g><g transform="matrix(0 1-1 0 1141.528911-46.305453)"><polygon points="-5.883886,-41.435143 24.116114,17.189957 -35.883886,17.189957 -5.883886,-41.435143" transform="matrix(-.766044 0.642788-.548219-.653342 91.897872 94.296633)" filter="url(#eXhSEaksIdV9-filter)" fill="none" stroke="rgba(118,160,222,0.5)" stroke-width="2" stroke-linecap="round" stroke-linejoin="round"/><polygon points="-5.883886,-41.435143 24.116114,17.189957 -35.883886,17.189957 -5.883886,-41.435143" transform="matrix(-.766044 0.642788-.548219-.653342 85.897872 89.296633)" filter="url(#eXhSEaksIdV10-filter)" fill="none" stroke="rgba(118,160,222,0.5)" stroke-width="2" stroke-linecap="round" stroke-linejoin="round"/></g><g transform="matrix(-.707107 0.707107-.707107-.707107 675.377121 584.536847)"><polygon points="-5.883886,-41.435143 24.116114,17.189957 -35.883886,17.189957 -5.883886,-41.435143" transform="matrix(-.766044 0.642788-.548219-.653342 91.897872 94.296633)" filter="url(#eXhSEaksIdV12-filter)" fill="none" stroke="rgba(118,160,222,0.5)" stroke-width="2" stroke-linecap="round" stroke-linejoin="round"/><polygon points="-5.883886,-41.435143 24.116114,17.189957 -35.883886,17.189957 -5.883886,-41.435143" transform="matrix(-.766044 0.642788-.548219-.653342 85.897872 89.296633)" filter="url(#eXhSEaksIdV13-filter)" fill="none" stroke="rgba(118,160,222,0.5)" stroke-width="2" stroke-linecap="round" stroke-linejoin="round"/></g><g transform="matrix(.258819-.965926 0.965926 0.258819 116.791305 499.300188)"><polygon points="-5.883886,-41.435143 24.116114,17.189957 -35.883886,17.189957 -5.883886,-41.435143" transform="matrix(-.766044 0.642788-.548219-.653342 91.897872 94.296633)" filter="url(#eXhSEaksIdV15-filter)" fill="none" stroke="rgba(118,160,222,0.5)" stroke-width="2" stroke-linecap="round" stroke-linejoin="round"/><polygon points="-5.883886,-41.435143 24.116114,17.189957 -35.883886,17.189957 -5.883886,-41.435143" transform="matrix(-.766044 0.642788-.548219-.653342 85.897872 89.296633)" filter="url(#eXhSEaksIdV16-filter)" fill="none" stroke="rgba(118,160,222,0.5)" stroke-width="2" stroke-linecap="round" stroke-linejoin="round"/></g><g transform="matrix(1.158131 0 0 0.926878 245.645224 305.814911)" opacity="0.5" filter="url(#eXhSEaksIdV17-filter)"><line x1="-46.082463" y1="-86.533841" x2="16.617282" y2="-23.834096" transform="translate(495.505144 363.025943)" fill="none" stroke="rgba(255,176,0,0.5)" stroke-width="3" stroke-linecap="round" stroke-linejoin="round"/><line x1="-6.812318" y1="-47.263696" x2="45.015818" y2="4.56444" transform="translate(451.070747 298.575638)" fill="none" stroke="rgba(255,176,0,0.5)" stroke-width="3" stroke-linecap="round" stroke-linejoin="round"/><line x1="-35.13206" y1="-75.583438" x2="-1.118262" y2="-41.56964" transform="translate(427.362598 310.776793)" fill="none" stroke="rgba(255,176,0,0.5)" stroke-width="3" stroke-linecap="round" stroke-linejoin="round"/><line x1="-35.13206" y1="-75.583438" x2="-13.716902" y2="-54.16828" transform="translate(468.160436 351.594783)" fill="none" stroke="rgba(255,176,0,0.5)" stroke-width="3" stroke-linecap="round" stroke-linejoin="round"/><line x1="6.597726" y1="-33.853652" x2="23.428434" y2="-17.022944" transform="translate(428.409121 220.903006)" fill="none" stroke="rgba(255,176,0,0.5)" stroke-width="3" stroke-linecap="round" stroke-linejoin="round"/><line x1="-32.495113" y1="-72.946491" x2="14.690226" y2="-25.761151" transform="translate(478.715181 379.898866)" fill="none" stroke="rgba(255,176,0,0.5)" stroke-width="3" stroke-linecap="round" stroke-linejoin="round"/><line x1="-36.913076" y1="-77.364454" x2="19.020108" y2="-21.43127" transform="translate(420.611945 341.493701)" fill="none" stroke="rgba(109,109,109,0.5)" stroke-width="3" stroke-linecap="round" stroke-linejoin="round"/><line x1="-46.082463" y1="-86.533841" x2="-19.04649" y2="-59.497868" transform="translate(516.461257 345.980815)" fill="none" stroke="rgba(109,109,109,0.5)" stroke-width="3" stroke-linecap="round" stroke-linejoin="round"/><line x1="-46.082463" y1="-86.533841" x2="-26.999075" y2="-67.450453" transform="translate(494.665878 306.54156)" fill="none" stroke="rgba(109,109,109,0.5)" stroke-width="3" stroke-linecap="round" stroke-linejoin="round"/><line x1="-46.082463" y1="-86.533841" x2="-30.18011" y2="-70.631487" transform="translate(532.548321 342.403151)" fill="none" stroke="rgba(109,109,109,0.5)" stroke-width="3" stroke-linecap="round" stroke-linejoin="round"/><line x1="-46.082463" y1="-86.533841" x2="-11.041767" y2="-51.493142" transform="translate(506.708108 295.868155)" fill="none" stroke="rgba(109,109,109,0.5)" stroke-width="3" stroke-linecap="round" stroke-linejoin="round"/><line x1="-31.654814" y1="-72.10619" x2="0.275447" y2="-40.175928" transform="translate(493.544278 265.177214)" fill="none" stroke="rgba(109,109,109,0.5)" stroke-width="3" stroke-linecap="round" stroke-linejoin="round"/><line x1="-46.082463" y1="-86.533841" x2="-30.546058" y2="-70.997435" transform="translate(549.541098 318.193896)" fill="none" stroke="rgba(109,109,109,0.5)" stroke-width="3" stroke-linecap="round" stroke-linejoin="round"/><line x1="-46.082463" y1="-86.533841" x2="-23.818042" y2="-64.26942" transform="translate(452.631936 299.276433)" fill="none" stroke="rgba(109,109,109,0.5)" stroke-width="3" stroke-linecap="round" stroke-linejoin="round"/><line x1="-14.962581" y1="-55.413959" x2="5.472206" y2="-34.979172" transform="translate(399.804092 398.082146)" fill="none" stroke="rgba(109,109,109,0.5)" stroke-width="3" stroke-linecap="round" stroke-linejoin="round"/><line x1="-46.082463" y1="-86.533841" x2="-16.819767" y2="-57.271145" transform="translate(360.364838 377.843582)" fill="none" stroke="rgba(109,109,109,0.5)" stroke-width="3" stroke-linecap="round" stroke-linejoin="round"/><line x1="-49.176434" y1="-89.627812" x2="-18.820457" y2="-59.271835" transform="translate(357.873937 335.809638)" fill="none" stroke="rgba(109,109,109,0.5)" stroke-width="3" stroke-linecap="round" stroke-linejoin="round"/><line x1="-40.843952" y1="-81.29533" x2="-4.527144" y2="-44.978523" transform="translate(389.113978 367.361042)" fill="none" stroke="rgba(109,109,109,0.5)" stroke-width="3" stroke-linecap="round" stroke-linejoin="round"/><line x1="-46.082463" y1="-86.533841" x2="-22.432692" y2="-62.88407" transform="translate(546.63532 393.011153)" fill="none" stroke="rgba(109,109,109,0.5)" stroke-width="3" stroke-linecap="round" stroke-linejoin="round"/><line x1="-46.082463" y1="-86.533841" x2="-24.81219" y2="-65.263568" transform="translate(425.826653 272.617637)" fill="none" stroke="rgba(109,109,109,0.5)" stroke-width="3" stroke-linecap="round" stroke-linejoin="round"/><line x1="-46.082463" y1="-86.533841" x2="11.117443" y2="-29.333935" transform="translate(507.793539 391.082842)" fill="none" stroke="rgba(109,109,109,0.5)" stroke-width="3" stroke-linecap="round" stroke-linejoin="round"/><line x1="-37.695638" y1="-78.147016" x2="30.359685" y2="-10.091693" transform="translate(403.389022 304.308637)" fill="none" stroke="rgba(109,109,109,0.5)" stroke-width="3" stroke-linecap="round" stroke-linejoin="round"/><line x1="-10.662823" y1="-51.114201" x2="16.92147" y2="-23.529908" transform="translate(389.582354 348.368904)" fill="none" stroke="rgba(109,109,109,0.5)" stroke-width="3" stroke-linecap="round" stroke-linejoin="round"/><line x1="-48.45199" y1="-88.903368" x2="2.884397" y2="-37.566981" transform="translate(464.853499 405.03633)" fill="none" stroke="rgba(109,109,109,0.5)" stroke-width="3" stroke-linecap="round" stroke-linejoin="round"/><line x1="-27.517583" y1="-67.968961" x2="2.431176" y2="-38.020202" transform="translate(343.711835 285.781852)" fill="none" stroke="rgba(109,109,109,0.5)" stroke-width="3" stroke-linecap="round" stroke-linejoin="round"/><line x1="-27.217789" y1="-67.669167" x2="2.424685" y2="-38.026693" transform="translate(333.781446 256.422441)" fill="none" stroke="rgba(109,109,109,0.5)" stroke-width="3" stroke-linecap="round" stroke-linejoin="round"/><line x1="-23.686108" y1="-64.137486" x2="2.348226" y2="-38.103152" transform="translate(351.018477 309.744314)" fill="none" stroke="rgba(109,109,109,0.5)" stroke-width="3" stroke-linecap="round" stroke-linejoin="round"/><line x1="-36.05309" y1="-76.504468" x2="2.615966" y2="-37.835412" transform="translate(381.373345 264.160652)" fill="none" stroke="rgba(109,109,109,0.5)" stroke-width="3" stroke-linecap="round" stroke-linejoin="round"/><line x1="-12.746402" y1="-53.19778" x2="21.184629" y2="-19.266749" transform="translate(415.487423 282.716747)" fill="none" stroke="rgba(109,109,109,0.5)" stroke-width="3" stroke-linecap="round" stroke-linejoin="round"/><line x1="-39.011589" y1="-79.462967" x2="-15.586057" y2="-56.037435" transform="translate(385.376325 306.718274)" fill="none" stroke="rgba(255,176,0,0.5)" stroke-width="3" stroke-linecap="round" stroke-linejoin="round"/><line x1="-39.558629" y1="-80.010007" x2="-15.574213" y2="-56.025591" transform="translate(367.051507 268.016165)" fill="none" stroke="rgba(255,176,0,0.5)" stroke-width="3" stroke-linecap="round" stroke-linejoin="round"/><line x1="-46.082463" y1="-86.533841" x2="-15.432975" y2="-55.884353" transform="translate(466.932041 422.52197)" fill="none" stroke="rgba(255,176,0,0.5)" stroke-width="3" stroke-linecap="round" stroke-linejoin="round"/><line x1="-30.719763" y1="-71.17114" x2="-15.765571" y2="-56.216949" transform="translate(388.146577 347.04219)" fill="none" stroke="rgba(255,176,0,0.5)" stroke-width="3" stroke-linecap="round" stroke-linejoin="round"/><line x1="-26.775837" y1="-67.227216" x2="-3.819374" y2="-44.270753" transform="translate(430.907033 410.560149)" fill="none" stroke="rgba(255,176,0,0.5)" stroke-width="3" stroke-linecap="round" stroke-linejoin="round"/><line x1="-41.87692" y1="-82.328298" x2="-3.492442" y2="-43.943819" transform="translate(353.689122 352.439141)" fill="none" stroke="rgba(255,176,0,0.5)" stroke-width="3" stroke-linecap="round" stroke-linejoin="round"/><line x1="-41.87692" y1="-82.328298" x2="-14.314841" y2="-54.766219" transform="translate(390.864367 408.833185)" fill="none" stroke="rgba(255,176,0,0.5)" stroke-width="3" stroke-linecap="round" stroke-linejoin="round"/><line x1="-41.87692" y1="-82.328298" x2="-26.189317" y2="-66.640695" transform="translate(403.039808 401.87579)" fill="none" stroke="rgba(255,176,0,0.5)" stroke-width="3" stroke-linecap="round" stroke-linejoin="round"/><line x1="-41.87692" y1="-82.328298" x2="-12.925495" y2="-53.376873" transform="translate(361.282947 398.002941)" fill="none" stroke="rgba(255,176,0,0.5)" stroke-width="3" stroke-linecap="round" stroke-linejoin="round"/><line x1="-35.970071" y1="-76.421447" x2="-15.651904" y2="-56.103282" transform="translate(339.818432 298.753159)" fill="none" stroke="rgba(255,176,0,0.5)" stroke-width="3" stroke-linecap="round" stroke-linejoin="round"/><line x1="-49.179239" y1="-89.630617" x2="-12.792035" y2="-53.243413" transform="translate(500.497457 421.064284)" fill="none" stroke="rgba(255,176,0,0.5)" stroke-width="3" stroke-linecap="round" stroke-linejoin="round"/><line x1="-36.530782" y1="-76.98216" x2="9.200883" y2="-31.250495" transform="translate(395.748021 337.051472)" fill="none" stroke="rgba(255,176,0,0.5)" stroke-width="3" stroke-linecap="round" stroke-linejoin="round"/><line x1="-46.082463" y1="-86.533841" x2="15.216513" y2="-25.234865" transform="translate(449.627252 280.308875)" fill="none" stroke="rgba(255,176,0,0.5)" stroke-width="3" stroke-linecap="round" stroke-linejoin="round"/><line x1="-43.472216" y1="-83.923594" x2="-12.893677" y2="-53.345055" transform="translate(457.879723 268.531937)" fill="none" stroke="rgba(255,176,0,0.5)" stroke-width="3" stroke-linecap="round" stroke-linejoin="round"/><line x1="-46.082463" y1="-86.533841" x2="-26.422925" y2="-66.874304" transform="translate(550.769384 338.873628)" fill="none" stroke="rgba(255,176,0,0.5)" stroke-width="3" stroke-linecap="round" stroke-linejoin="round"/><line x1="-46.082463" y1="-86.533841" x2="-21.958768" y2="-62.410147" transform="translate(534.97335 284.071062)" fill="none" stroke="rgba(255,176,0,0.5)" stroke-width="3" stroke-linecap="round" stroke-linejoin="round"/><line x1="-46.082463" y1="-86.533841" x2="-23.440614" y2="-63.891992" transform="translate(549.061581 376.470951)" fill="none" stroke="rgba(255,176,0,0.5)" stroke-width="3" stroke-linecap="round" stroke-linejoin="round"/><line x1="-46.082463" y1="-86.533841" x2="-20.086608" y2="-60.537986" transform="translate(555.179035 363.989)" fill="none" stroke="rgba(255,176,0,0.5)" stroke-width="3" stroke-linecap="round" stroke-linejoin="round"/><line x1="-14.942793" y1="-55.394171" x2="14.542351" y2="-25.909027" transform="translate(380.40687 247.774435)" fill="none" stroke="rgba(255,176,0,0.5)" stroke-width="3" stroke-linecap="round" stroke-linejoin="round"/></g><ellipse rx="15.666238" ry="15.666238" transform="translate(691.893906 363.159858)" filter="url(#eXhSEaksIdV66-filter)" fill="none" stroke="#566d8a" stroke-width="6" stroke-linecap="round" stroke-linejoin="round"/><ellipse rx="15.666238" ry="15.666238" transform="translate(932.010994 627.129836)" filter="url(#eXhSEaksIdV67-filter)" fill="none" stroke="#566d8a" stroke-width="6" stroke-linecap="round" stroke-linejoin="round"/><ellipse rx="15.666238" ry="15.666238" transform="translate(702.557615 222.964747)" filter="url(#eXhSEaksIdV68-filter)" fill="none" stroke="#566d8a" stroke-width="6" stroke-linecap="round" stroke-linejoin="round"/><ellipse rx="15.666238" ry="15.666238" transform="translate(926.748877 161.567832)" filter="url(#eXhSEaksIdV69-filter)" fill="none" stroke="#566d8a" stroke-width="6" stroke-linecap="round" stroke-linejoin="round"/><ellipse rx="15.666238" ry="15.666238" transform="translate(579.347248 128.481495)" filter="url(#eXhSEaksIdV70-filter)" fill="none" stroke="#566d8a" stroke-width="6" stroke-linecap="round" stroke-linejoin="round"/><ellipse rx="15.666238" ry="15.666238" transform="translate(215.666238 185.666238)" filter="url(#eXhSEaksIdV71-filter)" fill="none" stroke="#566d8a" stroke-width="6" stroke-linecap="round" stroke-linejoin="round"/><g transform="matrix(.53033 0.53033-.53033 0.53033 391.533975-122.336685)"><rect width="16" height="70" rx="0" ry="0" transform="translate(577.050314 352.002086)" filter="url(#eXhSEaksIdV73-filter)" fill="#3d3c40" stroke="#3c3f40"/><rect width="70" height="16" rx="0" ry="0" transform="translate(550.050314 379.002086)" filter="url(#eXhSEaksIdV74-filter)" fill="#3d3d41" stroke-width="0"/></g><g transform="matrix(.53033 0.53033-.53033 0.53033 697.840845-267.977543)"><rect width="16" height="70" rx="0" ry="0" transform="translate(577.050314 352.002086)" fill="#3d3c40" stroke="#3c3f40"/><rect width="70" height="16" rx="0" ry="0" transform="translate(550.050314 379.002086)" fill="#3d3d41" stroke-width="0"/></g><g transform="matrix(.53033 0.53033-.53033 0.53033 390.512569 207.571263)"><rect width="16" height="70" rx="0" ry="0" transform="translate(577.050314 352.002086)" fill="#3d3c40" stroke="#3c3f40"/><rect width="70" height="16" rx="0" ry="0" transform="translate(550.050314 379.002086)" fill="#3d3d41" stroke-width="0"/></g><g transform="matrix(.53033 0.53033-.53033 0.53033 882.6839-13.436443)"><rect width="16" height="70" rx="0" ry="0" transform="translate(577.050314 352.002086)" fill="#3d3c40" stroke="#3c3f40"/><rect width="70" height="16" rx="0" ry="0" transform="translate(550.050314 379.002086)" fill="#3d3d41" stroke-width="0"/></g><g transform="matrix(.53033 0.53033-.53033 0.53033 299.797497-371.455316)"><rect width="16" height="70" rx="0" ry="0" transform="translate(577.050314 352.002086)" fill="#3d3c40" stroke="#3c3f40"/><rect width="70" height="16" rx="0" ry="0" transform="translate(550.050314 379.002086)" fill="#3d3d41" stroke-width="0"/></g><polygon points="-21.370127,-36.370127 -18.718477,-24.021777 -6.370127,-21.370127 -18.718477,-18.718477 -21.370127,-6.370127 -24.021777,-18.718477 -36.370127,-21.370127 -24.021777,-24.021777 -21.370127,-36.370127" transform="translate(801.882744 108.050101)" fill="#614e24" stroke="#634f27"/><polygon points="-21.370127,-36.370127 -18.718477,-24.021777 -6.370127,-21.370127 -18.718477,-18.718477 -21.370127,-6.370127 -24.021777,-18.718477 -36.370127,-21.370127 -24.021777,-24.021777 -21.370127,-36.370127" transform="translate(486.370127 276.370127)" fill="#614e24" stroke="#634f27"/><polygon points="-21.370127,-36.370127 -18.718477,-24.021777 -6.370127,-21.370127 -18.718477,-18.718477 -21.370127,-6.370127 -24.021777,-18.718477 -36.370127,-21.370127 -24.021777,-24.021777 -21.370127,-36.370127" transform="translate(372.873014 342.902917)" fill="#614e24" stroke="#634f27"/><polygon points="-21.370127,-36.370127 -18.718477,-24.021777 -6.370127,-21.370127 -18.718477,-18.718477 -21.370127,-6.370127 -24.021777,-18.718477 -36.370127,-21.370127 -24.021777,-24.021777 -21.370127,-36.370127" transform="translate(35.370127 276.302318)" fill="#614e24" stroke="#634f27"/><polygon points="-21.370127,-36.370127 -18.718477,-24.021777 -6.370127,-21.370127 -18.718477,-18.718477 -21.370127,-6.370127 -24.021777,-18.718477 -36.370127,-21.370127 -24.021777,-24.021777 -21.370127,-36.370127" transform="translate(433.047526 566.514421)" fill="#614e24" stroke="#634f27"/><polygon points="-21.370127,-36.370127 -18.718477,-24.021777 -6.370127,-21.370127 -18.718477,-18.718477 -21.370127,-6.370127 -24.021777,-18.718477 -36.370127,-21.370127 -24.021777,-24.021777 -21.370127,-36.370127" transform="translate(245.151712 59.542505)" fill="#614e24" stroke="#634f27"/><polygon points="-21.370127,-36.370127 -18.718477,-24.021777 -6.370127,-21.370127 -18.718477,-18.718477 -21.370127,-6.370127 -24.021777,-18.718477 -36.370127,-21.370127 -24.021777,-24.021777 -21.370127,-36.370127" transform="translate(877.350859 431.243786)" fill="#614e24" stroke="#634f27"/><polygon points="-21.370127,-36.370127 -18.718477,-24.021777 -6.370127,-21.370127 -18.718477,-18.718477 -21.370127,-6.370127 -24.021777,-18.718477 -36.370127,-21.370127 -24.021777,-24.021777 -21.370127,-36.370127" transform="translate(1026.568974 293.411897)" fill="#614e24" stroke="#634f27"/><polygon points="-21.370127,-36.370127 -18.718477,-24.021777 -6.370127,-21.370127 -18.718477,-18.718477 -21.370127,-6.370127 -24.021777,-18.718477 -36.370127,-21.370127 -24.021777,-24.021777 -21.370127,-36.370127" transform="translate(801.613922 748.176838)" fill="#614e24" stroke="#634f27"/></svg>
